HIERARCHY
ROOT hip
{
  OFFSET 0.00112043 5.09927 -9.65472
  CHANNELS 6 Xposition Yposition Zposition Zrotation Xrotation Yrotation
  JOINT abdomen
  {
    OFFSET 0 -1.186 -1.5018
    CHANNELS 3 Zrotation Xrotation Yrotation
    JOINT abdomen2
    {
      OFFSET 0 9.964 0.2134
      CHANNELS 3 Zrotation Xrotation Yrotation
      JOINT chest
      {
        OFFSET 0 13.134 -3.2573
        CHANNELS 3 Zrotation Xrotation Yrotation
        JOINT neck
        {
          OFFSET 0 20.686 -1.6905
          CHANNELS 3 Zrotation Xrotation Yrotation
          JOINT head
          {
            OFFSET 0 7.238 -0.1237
            CHANNELS 3 Zrotation Xrotation Yrotation
            End Site
            {
              OFFSET 0 0 0
            }
          }
        }
        JOINT lCollar
        {
          OFFSET 1.7069 20.075 5.0056
          CHANNELS 3 Zrotation Xrotation Yrotation
          JOINT lShldr
          {
            OFFSET 13.6458 -0.047 -4.849
            CHANNELS 3 Zrotation Xrotation Yrotation
            JOINT lForeArm
            {
              OFFSET 28.3255 -0.9759 2.2888
              CHANNELS 3 Zrotation Xrotation Yrotation
              JOINT lHand
              {
                OFFSET 22.1583 -0.53 10.8316
                CHANNELS 3 Zrotation Xrotation Yrotation
                JOINT lThumb1
                {
                  OFFSET 0.786 0.112 2.5817
                  CHANNELS 3 Zrotation Xrotation Yrotation
                  JOINT lThumb2
                  {
                    OFFSET 0.3601 -0.878 4.2331
                    CHANNELS 3 Zrotation Xrotation Yrotation
                    JOINT lThumb2_End
                    {
                      OFFSET 1.8127 -1.216 2.2227
                      CHANNELS 3 Zrotation Xrotation Yrotation
                      End Site
                      {
                        OFFSET 0.0181 -0.0122 0.0222
                      }
                    }
                  }
                }
                JOINT lCarpal1
                {
                  OFFSET 0.9571 1.114 1.7695
                  CHANNELS 3 Zrotation Xrotation Yrotation
                  JOINT lIndex1
                  {
                    OFFSET 4.1246 0.487 4.1451
                    CHANNELS 3 Zrotation Xrotation Yrotation
                    JOINT lIndex2
                    {
                      OFFSET 3.4052 -1.454 2.7682
                      CHANNELS 3 Zrotation Xrotation Yrotation
                      JOINT lIndex2_End
                      {
                        OFFSET 1.4531 -1.795 1.2713
                        CHANNELS 3 Zrotation Xrotation Yrotation
                        End Site
                        {
                          OFFSET 0.0145 -0.0179 0.0127
                        }
                      }
                    }
                  }
                  JOINT lMid1
                  {
                    OFFSET 5.6954 0.21 2.1184
                    CHANNELS 3 Zrotation Xrotation Yrotation
                    JOINT lMid2
                    {
                      OFFSET 3.9766 -1.54 2.3863
                      CHANNELS 3 Zrotation Xrotation Yrotation
                      JOINT lMid2_End
                      {
                        OFFSET 1.4042 -1.926 1.125
                        CHANNELS 3 Zrotation Xrotation Yrotation
                        End Site
                        {
                          OFFSET 0.014 -0.0193 0.0113
                        }
                      }
                    }
                  }
                }
                JOINT lCarpal2
                {
                  OFFSET 2.0956 0.66 -0.3894
                  CHANNELS 3 Zrotation Xrotation Yrotation
                  JOINT lRing1
                  {
                    OFFSET 5.0395 -0.09 2.4971
                    CHANNELS 3 Zrotation Xrotation Yrotation
                    JOINT lRing2
                    {
                      OFFSET 3.7921 -1.552 1.4806
                      CHANNELS 3 Zrotation Xrotation Yrotation
                      JOINT lRing2_End
                      {
                        OFFSET 1.4655 -1.808 0.9609
                        CHANNELS 3 Zrotation Xrotation Yrotation
                        End Site
                        {
                          OFFSET 0.0147 -0.0181 0.0096
                        }
                      }
                    }
                  }
                  JOINT lPinky1
                  {
                    OFFSET 4.9141 -1.269 0.3591
                    CHANNELS 3 Zrotation Xrotation Yrotation
                    JOINT lPinky2
                    {
                      OFFSET 3.1477 -1.685 0.8462
                      CHANNELS 3 Zrotation Xrotation Yrotation
                      JOINT lPinky2_End
                      {
                        OFFSET 0.8055 -1.585 0.7955
                        CHANNELS 3 Zrotation Xrotation Yrotation
                        End Site
                        {
                          OFFSET 0.0081 -0.0158 0.008
                        }
                      }
                    }
                  }
                }
              }
            }
          }
        }
        JOINT rCollar
        {
          OFFSET -1.7069 20.075 5.0056
          CHANNELS 3 Zrotation Xrotation Yrotation
          JOINT rShldr
          {
            OFFSET -13.6458 -0.047 -4.849
            CHANNELS 3 Zrotation Xrotation Yrotation
            JOINT rForeArm
            {
              OFFSET -28.3255 -0.9759 2.2888
              CHANNELS 3 Zrotation Xrotation Yrotation
              JOINT rHand
              {
                OFFSET -22.1583 -0.53 10.8316
                CHANNELS 3 Zrotation Xrotation Yrotation
                JOINT rThumb1
                {
                  OFFSET -0.786 0.112 2.5817
                  CHANNELS 3 Zrotation Xrotation Yrotation
                  JOINT rThumb2
                  {
                    OFFSET -0.3601 -0.878 4.2331
                    CHANNELS 3 Zrotation Xrotation Yrotation
                    JOINT rThumb2_End
                    {
                      OFFSET -1.8127 -1.216 2.2227
                      CHANNELS 3 Zrotation Xrotation Yrotation
                      End Site
                      {
                        OFFSET -0.0181 -0.0122 0.0222
                      }
                    }
                  }
                }
                JOINT rCarpal1
                {
                  OFFSET -0.9571 1.114 1.7695
                  CHANNELS 3 Zrotation Xrotation Yrotation
                  JOINT rIndex1
                  {
                    OFFSET -4.1246 0.487 4.1451
                    CHANNELS 3 Zrotation Xrotation Yrotation
                    JOINT rIndex2
                    {
                      OFFSET -3.4052 -1.454 2.7682
                      CHANNELS 3 Zrotation Xrotation Yrotation
                      JOINT rIndex2_End
                      {
                        OFFSET -1.4531 -1.795 1.2713
                        CHANNELS 3 Zrotation Xrotation Yrotation
                        End Site
                        {
                          OFFSET -0.0145 -0.018 0.0127
                        }
                      }
                    }
                  }
                  JOINT rMid1
                  {
                    OFFSET -5.6954 0.21 2.1184
                    CHANNELS 3 Zrotation Xrotation Yrotation
                    JOINT rMid2
                    {
                      OFFSET -3.9766 -1.54 2.3863
                      CHANNELS 3 Zrotation Xrotation Yrotation
                      JOINT rMid2_End
                      {
                        OFFSET -1.4042 -1.926 1.125
                        CHANNELS 3 Zrotation Xrotation Yrotation
                        End Site
                        {
                          OFFSET -0.014 -0.0193 0.0113
                        }
                      }
                    }
                  }
                }
                JOINT rCarpal2
                {
                  OFFSET -2.0956 0.66 -0.3894
                  CHANNELS 3 Zrotation Xrotation Yrotation
                  JOINT rRing1
                  {
                    OFFSET -5.0395 -0.09 2.4971
                    CHANNELS 3 Zrotation Xrotation Yrotation
                    JOINT rRing2
                    {
                      OFFSET -3.7921 -1.552 1.4806
                      CHANNELS 3 Zrotation Xrotation Yrotation
                      JOINT rRing2_End
                      {
                        OFFSET -1.4655 -1.808 0.9609
                        CHANNELS 3 Zrotation Xrotation Yrotation
                        End Site
                        {
                          OFFSET -0.0147 -0.0181 0.0096
                        }
                      }
                    }
                  }
                  JOINT rPinky1
                  {
                    OFFSET -4.9141 -1.269 0.3592
                    CHANNELS 3 Zrotation Xrotation Yrotation
                    JOINT rPinky2
                    {
                      OFFSET -3.1477 -1.685 0.8462
                      CHANNELS 3 Zrotation Xrotation Yrotation
                      JOINT rPinky2_End
                      {
                        OFFSET -0.8055 -1.585 0.7955
                        CHANNELS 3 Zrotation Xrotation Yrotation
                        End Site
                        {
                          OFFSET -0.0081 -0.0158 0.008
                        }
                      }
                    }
                  }
                }
              }
            }
          }
        }
      }
    }
  }
  JOINT lThigh
  {
    OFFSET 8.367 -8.2066 0.5982
    CHANNELS 3 Zrotation Xrotation Yrotation
    JOINT lShin
    {
      OFFSET 2.1923 -43.463 -0.4932
      CHANNELS 3 Zrotation Xrotation Yrotation
      JOINT lFoot
      {
        OFFSET 0.7333 -45.8593 -2.6451
        CHANNELS 3 Zrotation Xrotation Yrotation
        End Site
        {
          OFFSET 2.6618 -4.2699 12.3931
        }
      }
    }
  }
  JOINT rThigh
  {
    OFFSET -8.367 -8.2066 0.5982
    CHANNELS 3 Zrotation Xrotation Yrotation
    JOINT rShin
    {
      OFFSET -2.1923 -43.463 -0.4931
      CHANNELS 3 Zrotation Xrotation Yrotation
      JOINT rFoot
      {
        OFFSET -0.7333 -45.8593 -2.6451
        CHANNELS 3 Zrotation Xrotation Yrotation
        End Site
        {
          OFFSET -2.6618 -4.2699 12.3931
        }
      }
    }
  }
}
MOTION
Frames:	4
Frame Time:	0.0333333
11.8612 40.2858 53.2954 -0.0133532 0.011028 -169.105 -0.598011 3.23022 0.0406858 -1.2012 6.45983 0.115522 -1.2012 6.45983 0.115529 17.4173 9.72388 4.09063 8.40909 -36.0425 4.94019 -2.34573 -65.7195 37.5061 -61.7022 26.0882 31.6037 55.3895 -16.1112 15.1955 -21.4876 -23.2258 -4.4943 -6.36111e-015 4.77083e-015 7.95139e-016 1.98626e-031 4.77083e-015 -2.38542e-015 -3.18055e-015 1.59028e-015 -1.59028e-015 -1.32417e-031 3.18055e-015 2.38542e-015 1.98626e-031 4.77083e-015 -2.38542e-015 -6.36111e-015 3.18055e-015 -3.97569e-015 -6.36111e-015 3.18055e-015 7.95139e-016 1.98626e-031 4.77083e-015 -2.38542e-015 -6.36111e-015 3.18055e-015 -3.97569e-015 -6.36111e-015 3.18055e-015 7.95139e-016 -1.32417e-031 3.18055e-015 2.38542e-015 1.98626e-031 4.77083e-015 -2.38542e-015 -6.36111e-015 3.18055e-015 -3.97569e-015 -6.36111e-015 3.18055e-015 7.95139e-016 1.98626e-031 4.77083e-015 -2.38542e-015 -6.36111e-015 3.18055e-015 -3.97569e-015 -6.36111e-015 3.18055e-015 7.95139e-016 6.72963 1.28255 19.4091 63.5549 -0.505508 25.0093 1.54789 -1.20557 31.9585 -6.43029 30.5982 -6.78543 9.54166e-015 -4.77083e-015 -6.36111e-015 5.69558e-006 -2.75415e-006 1.99996e-007 1.37319e-006 -3.14426e-006 1.17032e-006 3.18055e-015 -4.77083e-015 -1.59028e-015 1.59028e-014 -9.54166e-015 3.18055e-015 5.69558e-006 -2.75415e-006 1.99996e-007 1.37319e-006 -3.14426e-006 1.17032e-006 1.59028e-014 -9.54166e-015 3.18055e-015 5.69558e-006 -2.75415e-006 1.99996e-007 1.37319e-006 -3.14426e-006 1.17032e-006 3.18055e-015 -4.77083e-015 -1.59028e-015 1.59028e-014 -9.54166e-015 3.18055e-015 5.69558e-006 -2.75415e-006 1.99996e-007 1.37319e-006 -3.14426e-006 1.17032e-006 1.59028e-014 -9.54166e-015 3.18055e-015 5.69558e-006 -2.75415e-006 1.99996e-007 1.37319e-006 -3.14426e-006 1.17032e-006 4.90911 -25.7237 4.98981 156.739 72.9082 -151.462 24.138 65.3597 -13.3213 2.41364 -24.3891 -8.6524 -160.969 67.7699 153.989 -10.7193 68.036 -4.37676 
12.3356 40.1296 53.4288 -0.0133532 0.011028 -169.105 -0.45913 3.24421 0.0618892 -0.924004 6.4878 0.150247 -0.924004 6.48781 0.15025 18.0326 9.74302 3.30663 8.59969 -36.0136 5.05068 -2.89041 -65.8926 37.5623 -61.6281 26.1236 31.6572 54.3722 -16.0921 16.1175 -22.0823 -23.1871 -4.32718 -6.36111e-015 -1.59028e-015 3.97569e-015 4.41391e-032 -1.59028e-015 1.59028e-015 -3.18055e-015 0 7.15625e-015 -6.36111e-015 -1.59028e-015 3.97569e-015 4.41391e-032 -1.59028e-015 1.59028e-015 -3.18055e-015 0 7.15625e-015 -3.18055e-015 3.18055e-015 -1.59028e-015 4.41391e-032 -1.59028e-015 1.59028e-015 -3.18055e-015 0 7.15625e-015 -3.18055e-015 3.18055e-015 -1.59028e-015 -6.36111e-015 -1.59028e-015 3.97569e-015 4.41391e-032 -1.59028e-015 1.59028e-015 -3.18055e-015 0 7.15625e-015 -3.18055e-015 3.18055e-015 -1.59028e-015 4.41391e-032 -1.59028e-015 1.59028e-015 -3.18055e-015 0 7.15625e-015 -3.18055e-015 3.18055e-015 -1.59028e-015 6.9447 3.75059 19.0796 64.0209 -0.141054 24.7733 1.75615 -0.98632 32.834 -7.46653 34.1423 -7.47847 -3.18055e-015 -1.59028e-015 -3.18055e-015 6.2833e-006 2.71956e-006 -2.25309e-006 2.34449e-006 -1.96941e-006 5.58304e-007 -3.18055e-015 -1.59028e-015 -1.59028e-015 5.29669e-031 -9.54166e-015 3.18055e-015 6.2833e-006 2.71956e-006 -2.25309e-006 2.34449e-006 -1.96941e-006 5.58304e-007 5.29669e-031 -9.54166e-015 3.18055e-015 6.2833e-006 2.71956e-006 -2.25309e-006 2.34449e-006 -1.96941e-006 5.58304e-007 -3.18055e-015 -1.59028e-015 -1.59028e-015 5.29669e-031 -9.54166e-015 3.18055e-015 6.2833e-006 2.71956e-006 -2.25309e-006 2.34449e-006 -1.96941e-006 5.58304e-007 5.29669e-031 -9.54166e-015 3.18055e-015 6.2833e-006 2.71956e-006 -2.25309e-006 2.34449e-006 -1.96941e-006 5.58304e-007 5.24558 -26.1332 4.74927 156.756 72.8986 -151.486 24.8575 65.2941 -14.4083 2.77038 -24.8661 -8.93961 -161.237 67.3855 154.194 -9.96717 68.1621 -5.46618 
12.8101 39.9729 53.5626 -0.0133532 0.011028 -169.105 -0.320288 3.25822 0.0831586 -0.646894 6.5159 0.185049 -0.646893 6.5159 0.185044 18.6474 9.75326 2.52276 8.79014 -35.9844 5.161 -3.43835 -66.0661 37.6148 -61.554 26.159 31.7106 53.3548 -16.0887 17.0395 -22.6768 -23.15 -4.15972 5.20159e-007 2.25269e-006 -1.35938e-006 -3.18055e-015 -3.18055e-015 -1.35174e-014 -9.54166e-015 -1.59028e-015 -6.36111e-015 6.36111e-015 0 2.38542e-015 5.20159e-007 2.25269e-006 -1.35938e-006 -3.18055e-015 -1.59028e-015 -7.15625e-015 -3.97252e-031 -3.18055e-015 -7.15625e-015 5.20159e-007 2.25269e-006 -1.35938e-006 -3.18055e-015 -1.59028e-015 -7.15625e-015 -3.97252e-031 -3.18055e-015 -7.15625e-015 6.36111e-015 0 2.38542e-015 5.20159e-007 2.25269e-006 -1.35938e-006 -3.18055e-015 -1.59028e-015 -7.15625e-015 -3.97252e-031 -3.18055e-015 -7.15625e-015 5.20159e-007 2.25269e-006 -1.35938e-006 -3.18055e-015 -1.59028e-015 -7.15625e-015 -3.97252e-031 -3.18055e-015 -7.15625e-015 7.17357 6.20568 18.7414 64.4883 0.221416 24.5344 1.96099 -0.763917 33.7083 -8.16959 37.7159 -8.26626 -3.18055e-015 -3.18055e-015 -0 3.31069e-006 -8.13676e-007 -3.1485e-008 1.27222e-014 4.77083e-015 -4.77083e-015 -3.18055e-015 -3.18055e-015 -1.59028e-015 3.18055e-015 -6.36111e-015 1.11319e-014 3.31069e-006 -8.13676e-007 -3.1485e-008 9.54166e-015 1.59028e-015 -1.59028e-015 3.18055e-015 -6.36111e-015 1.11319e-014 3.31069e-006 -8.13676e-007 -3.1485e-008 9.54166e-015 1.59028e-015 -1.59028e-015 -3.18055e-015 -3.18055e-015 -1.59028e-015 3.18055e-015 -6.36111e-015 1.11319e-014 3.31069e-006 -8.13676e-007 -3.1485e-008 9.54166e-015 1.59028e-015 -1.59028e-015 3.18055e-015 -6.36111e-015 1.11319e-014 3.31069e-006 -8.13676e-007 -3.1485e-008 9.54166e-015 1.59028e-015 -1.59028e-015 5.58134 -26.5433 4.51058 156.773 72.8894 -151.509 25.572 65.2228 -15.4903 3.12602 -25.3438 -9.22541 -161.496 67.0015 154.389 -9.20562 68.2833 -6.56525 
13.2845 39.8158 53.6966 -0.0133532 0.011028 -169.105 -0.181487 3.2722 0.104475 -0.369867 6.54404 0.219915 -0.369866 6.54404 0.21991 19.2625 9.75557 1.73897 8.98043 -35.955 5.27116 -3.98954 -66.2396 37.6635 -61.4799 26.1944 31.7639 52.3379 -16.1011 17.9612 -23.2712 -23.1145 -3.9919 1.15661e-006 3.62685e-006 7.78616e-007 -2.88617e-008 -1.87712e-006 4.41208e-006 -2.87748e-006 -6.21983e-007 2.68498e-006 -3.18055e-015 0 -5.56597e-015 1.15661e-006 3.62685e-006 7.78616e-007 -2.88617e-008 -1.87712e-006 4.41208e-006 -2.87748e-006 -6.21983e-007 2.68498e-006 1.15661e-006 3.62685e-006 7.78616e-007 -2.88617e-008 -1.87712e-006 4.41208e-006 -2.87748e-006 -6.21983e-007 2.68498e-006 -3.18055e-015 0 -5.56597e-015 1.15661e-006 3.62685e-006 7.78616e-007 -2.88617e-008 -1.87712e-006 4.41208e-006 -2.87748e-006 -6.21983e-007 2.68498e-006 1.15661e-006 3.62685e-006 7.78616e-007 -2.88617e-008 -1.87712e-006 4.41208e-006 -2.87748e-006 -6.21983e-007 2.68498e-006 7.41723 8.64649 18.3931 64.9571 0.581871 24.2925 2.16231 -0.538576 34.5816 -8.51395 41.3188 -9.17747 1.29297e-006 -1.61207e-006 1.4658e-006 6.36111e-015 -9.54166e-015 1.11319e-014 6.36111e-015 -7.95139e-015 9.54166e-015 -3.18055e-015 3.18055e-015 -0 1.29297e-006 -1.61207e-006 1.4658e-006 6.36111e-015 -7.95139e-015 1.27222e-014 6.36111e-015 -3.18055e-015 9.54166e-015 1.29297e-006 -1.61207e-006 1.4658e-006 6.36111e-015 -7.95139e-015 1.27222e-014 6.36111e-015 -3.18055e-015 9.54166e-015 -3.18055e-015 3.18055e-015 -0 1.29297e-006 -1.61207e-006 1.4658e-006 6.36111e-015 -7.95139e-015 1.27222e-014 6.36111e-015 -3.18055e-015 9.54166e-015 1.29297e-006 -1.61207e-006 1.4658e-006 6.36111e-015 -7.95139e-015 1.27222e-014 6.36111e-015 -3.18055e-015 9.54166e-015 5.91637 -26.9546 4.27375 156.789 72.8804 -151.533 26.281 65.1459 -16.5668 3.48191 -25.8984 -9.50559 -161.821 66.5479 154.641 -8.43491 68.3995 -7.67368 
